<?xml version="1.0" standalone="no"?><!-- Generator: Gravit.io --><svg xmlns="http://www.w3.org/2000/svg" xmlns:xlink="http://www.w3.org/1999/xlink" style="isolation:isolate" viewBox="0 0 864 864" width="864" height="864"><defs><clipPath id="_clipPath_FAq8w5V69Qi9A3icSyHJkpc5fYIZU1hP"><rect width="864" height="864"/></clipPath></defs><g clip-path="url(#_clipPath_FAq8w5V69Qi9A3icSyHJkpc5fYIZU1hP)"><path d=" M 832.6 287.955 L 796.49 320.328 L 760.381 352.702 C 756.864 355.855 750.348 357.272 745.838 355.866 L 699.53 341.419 L 653.221 326.973 C 648.712 325.566 644.235 320.677 643.23 316.062 L 633.055 269.343 L 622.879 222.624 C 621.874 218.008 623.914 211.701 627.43 208.548 L 663.54 176.175 L 699.649 143.802 C 703.166 140.649 709.682 139.231 714.192 140.638 L 760.5 155.084 L 806.809 169.531 C 811.318 170.938 815.795 175.827 816.8 180.442 L 826.975 227.161 L 837.151 273.88 C 838.156 278.495 836.117 284.802 832.6 287.955 Z " fill="rgb(255,255,255)" vector-effect="non-scaling-stroke" stroke-width="10" stroke="rgb(0,0,0)" stroke-linejoin="miter" stroke-linecap="square" stroke-miterlimit="3"/></g></svg>