<?xml version="1.0" standalone="no"?><!-- Generator: Gravit.io --><svg xmlns="http://www.w3.org/2000/svg" xmlns:xlink="http://www.w3.org/1999/xlink" style="isolation:isolate" viewBox="0 0 864 864" width="864" height="864"><defs><clipPath id="_clipPath_ES4sTqKD4I6qP0uUWpeSresvj2WSBwUh"><rect width="864" height="864"/></clipPath></defs><g clip-path="url(#_clipPath_ES4sTqKD4I6qP0uUWpeSresvj2WSBwUh)"><path d=" M 519.784 149.102 L 495.487 170.195 L 471.19 191.288 C 469.984 192.335 467.762 192.818 466.23 192.367 L 435.344 183.259 L 404.457 174.151 C 402.925 173.7 401.406 172.067 401.065 170.506 L 394.502 140.418 L 387.939 110.329 C 387.598 108.769 388.301 106.652 389.507 105.606 L 413.804 84.513 L 438.101 63.42 C 439.306 62.373 441.529 61.89 443.06 62.342 L 473.947 71.449 L 504.833 80.557 C 506.365 81.008 507.885 82.642 508.225 84.202 L 514.788 114.29 L 521.352 144.379 C 521.692 145.939 520.989 148.056 519.784 149.102 Z " fill="rgb(232,232,232)"/></g></svg>