<?xml version="1.0" standalone="no"?><!-- Generator: Gravit.io --><svg xmlns="http://www.w3.org/2000/svg" xmlns:xlink="http://www.w3.org/1999/xlink" style="isolation:isolate" viewBox="0 0 864 864" width="864" height="864"><defs><clipPath id="_clipPath_V2ijRoSVj0bSSprEwNBToF4h1nOfQSdd"><rect width="864" height="864"/></clipPath></defs><g clip-path="url(#_clipPath_V2ijRoSVj0bSSprEwNBToF4h1nOfQSdd)"><path d=" M 289.183 186.716 L 239.098 229.754 L 189.013 272.792 C 185.597 275.728 179.31 277.095 174.983 275.842 L 111.487 257.46 L 47.991 239.079 C 43.664 237.826 39.372 233.236 38.411 228.835 L 25.091 167.8 L 11.771 106.766 C 10.81 102.365 12.804 96.408 16.221 93.472 L 66.306 50.434 L 116.39 7.396 C 119.807 4.46 126.094 3.094 130.42 4.347 L 193.916 22.728 L 257.412 41.11 C 261.739 42.363 266.032 46.953 266.992 51.354 L 280.312 112.388 L 293.633 173.423 C 294.593 177.824 292.599 183.781 289.183 186.716 Z " fill="rgb(41,70,119)"/></g></svg>