<?xml version="1.0" encoding="utf-8"?>
<!-- Generator: Adobe Illustrator 16.0.0, SVG Export Plug-In . SVG Version: 6.00 Build 0)  -->
<!DOCTYPE svg PUBLIC "-//W3C//DTD SVG 1.1//EN" "http://www.w3.org/Graphics/SVG/1.1/DTD/svg11.dtd">
<svg version="1.1" id="Layer_1" xmlns="http://www.w3.org/2000/svg" xmlns:xlink="http://www.w3.org/1999/xlink" x="0px" y="0px"
	 width="864px" height="864px" viewBox="0 0 864 864" enable-background="new 0 0 864 864" xml:space="preserve">
<path fill-rule="evenodd" clip-rule="evenodd" fill="#594A42" d="M86.638,343.763c-14.354-5.349-42.934-2.783-43.344-9.954
	c-0.213-11.956,13.558-6.786,21.718-6.282c6.814,0.42,13.649,1.424,20.326,2.859c6.206,1.333,6.404-3.054,7.95-6.783
	c1.732-4.177,1.742-7.353-3.052-9.293c-9.645-3.903-19.212-7.998-28.889-11.818c-3.666-1.447-8.007-2.369-6.435-7.611
	c1.579-5.271,6.084-5.125,10.179-3.66c11.298,4.044,22.478,8.419,34.757,13.062c3.803-8.679,7.928-18.381,12.289-27.976
	c7.365-16.205,14.442-32.564,22.528-48.406c3.671-7.193,8.743-14.025,14.464-19.735c8.709-8.692,19.174-8.391,27.496,0.601
	c9.291,10.04,17.872,20.76,26.374,31.492c3.03,3.826,5.894,5.269,10.99,5.102c25.219-0.823,50.466-0.825,75.684-1.679
	c3.353-0.113,7.546-2.672,9.729-5.397c9.587-11.973,18.053-24.868,27.932-36.579c10.604-12.572,25.017-12.203,34.727,1.02
	c9.379,12.771,17.77,26.328,25.792,40.01c3.557,6.065,6.923,7.528,13.696,5.663c34.467-9.492,69.43-16.632,105.393-15.462
	c78.32,2.547,141.551,35.125,188.686,97.717c18.266,24.258,26.689,53.186,34.387,82.155c0.422,1.589,4.118,18.114,10.947,16.063
	c13.814-4.091,20.648-11.888,17.342-21.384c-1.959-5.626-5.453-10.703-7.996-16.147c-2.531-5.416-5.936-10.796-6.83-16.523
	c-1.713-10.972,2.822-20.074,12.531-25.684c10.221-5.905,20.812-5.169,30.199,1.734c18.32,13.473,28.562,32.038,29.24,54.643
	c1.279,42.674-23.855,72.521-66.535,79.26c-9.152,1.445-12.592,4.695-13.707,13.852c-3.652,29.998-10.729,59.229-20.879,87.799
	c-10.061,28.318-28.273,49.764-52.51,66.666c-10.549,7.355-21.119,14.691-31.842,21.791c-8.123,5.379-16.451,4.498-24.955,0.371
	c-3.271-1.59-7.137-2.826-10.713-2.781c-24.133,0.305-48.264,0.871-72.383,1.693c-3.574,0.123-7.621,1.283-10.521,3.297
	c-6.531,4.533-12.676,4.75-20.133,2.213c-7.09-2.412-14.816-4.025-22.279-4.092c-40.881-0.363-81.768-0.145-122.651-0.119
	c-6.244,0.006-11.982,0.184-17.542,4.695c-6.94,5.633-16.964,4.27-24.704-0.744c-2.958-1.916-6.75-3.408-10.22-3.537
	c-27.402-1.014-54.816-1.73-82.231-2.281c-2.694-0.055-5.717,1.154-8.088,2.596c-11.193,6.812-18.796,5.645-27.821-3.574
	c-3.428-3.5-7.938-6.414-12.497-8.258c-36.301-14.67-61.563-41.025-80.076-74.682c-18.858-34.285-21.14-71.506-19.414-109.453
	c1.939-42.635,9.722-84.309,20.473-125.505C85.115,351.289,85.754,347.797,86.638,343.763z"/>
<g>
	<path fill-rule="evenodd" clip-rule="evenodd" fill="#94958D" d="M223.922,259.901c3.324,0,6.316,0.185,9.277-0.043
		c4.331-0.333,6.76-0.149,6.76-0.149c0.067,1.594,0.954,9.125,1.466,10.675c1.925,5.822,6.64,9.042,11.934,7.339
		c3.083-0.991,6.657-5.765,6.95-9.67c0.166-2.206,0.17-4.819,0.17-8.118c2.657-0.147,5.318-0.101,7.917-0.476
		c6.602-0.95,8.46-0.133,8.46-0.133c0.618,8.632,2.526,18.526,11.56,18.679c5.516,0.093,7.082-4.941,7.543-7.64
		c1.186-6.934,5.236-11.483,9.561-16.587c7.599-8.966,13.848-19.061,21.033-28.397c3.822-4.966,8.404-9.349,12.674-13.967
		c4.915-5.317,9.813-4.514,13.619,0.949c7.19,10.322,13.965,20.935,20.818,31.488c4.757,7.327,7.832,18.275,14.456,21.145
		c6.575,2.847,16.655-2.375,25.192-4.09c19.06-3.83,38.112-7.708,57.182-11.486c2.374-0.47,4.847-0.447,7.974-0.711
		c0.465,2.341,0.972,4.36,1.251,6.411c0.668,4.876,0.761,9.882,1.918,14.632c3.476,14.263,13.093,22.452,24.914,21.763
		c11.479-0.669,20.964-10.477,22.972-24.13c0.823-5.601,1.063-11.288,1.75-18.943c16.434,4.018,31.784,7.619,46.987,11.761
		c1.297,0.353,2.34,4.335,2.246,6.578c-0.248,5.987-1.763,11.95-1.707,17.913c0.089,9.412,5.513,16.842,12.896,19.161
		c9.75,3.062,21.804,0.304,27.166-6.555c2.852-3.646,5.184-7.699,8.111-12.111c22.345,12.514,40.429,29.699,55.805,49.968
		c17.922,23.621,27.362,51.027,35.095,79.134c18.874,68.614,3.912,132.849-26.714,194.52c-9.205,18.533-25.875,30.968-43.361,41.755
		c-3.501,2.159-7.266,3.992-10.45,6.545c-10.615,8.508-20.449,12.11-35.317,7.007c-12.488-4.287-27.614-0.931-41.573-0.882
		c-11.243,0.039-22.548-0.48-33.709,0.532c-7.368,0.669-14.531,3.612-21.786,5.535c-2.514,0.667-5.769,2.684-7.432,1.779
		c-15.767-8.578-32.814-5.068-49.29-5.322c-34.547-0.531-69.121-0.484-103.661,0.329c-9.097,0.214-18.108,4.093-29.125,6.767
		c-6.906-9.416-19.735-6.789-31.909-7.118c-22.457-0.607-44.91-1.381-67.357-2.277c-7.543-0.302-14.664-0.528-20.508,5.838
		c-1.052,1.145-6.752,0.21-8.15-1.513c-7.886-9.725-19.194-12.994-29.925-17.807c-21.62-9.694-37.414-26.447-51.251-45.133
		c-24.164-32.632-30.917-69.987-29.989-109.63c1.347-57.515,11.967-113.508,30.683-167.541
		c11.522-33.265,28.018-64.81,42.366-97.089c0.987-2.22,2.537-4.242,4.073-6.158c6.458-8.052,11.365-8.869,18.058-1.31
		c10.526,11.886,20.464,24.33,30.011,37.02c2.422,3.221,1.91,8.503,3.718,12.385c1.302,2.795,3.597,6.938,6.668,6.938
		c5.665,0,7.732-3.751,8.952-7.36C222.121,268.466,222.927,264.325,223.922,259.901z M253.497,352.042
		c3.483,2.664,11.559,7.492,18.274,8.025c4.945,0.393,9.583-3.024,8.596-8.554c-0.364-2.042-5.653-4.522-8.684-4.506
		c-7.228,0.037-9.787-5.824-10.174-9.868c-0.442-4.617-0.503-9.481-2.113-13.715c-0.923-2.427-3.754-4.574-6.309-4.777
		c-2.019-0.162-6.351,2.048-7.032,4.689c-0.551,2.136-0.726,4.778-0.797,7.229c-0.327,11.352-2.627,13.914-13.276,16.186
		c-2.333,0.498-5.324,1.808-6.366,4.467c0.223,3.897,3.219,5.649,5.648,7.008C239.045,362.578,249.661,355.096,253.497,352.042z
		 M312.675,332.111c-0.081,8.864,6.01,15.334,14.593,15.503c8.621,0.169,16.282-7.005,16.239-15.206
		c-0.043-8.379-7.296-15.466-15.97-15.605C319.196,316.668,312.755,323.303,312.675,332.111z M194.216,331.985
		c-0.134-8.582-7.124-15.221-15.899-15.1c-8.481,0.117-15.288,7.399-15.054,16.104c0.224,8.346,6.902,14.535,15.588,14.446
		C187.824,347.345,194.353,340.779,194.216,331.985z M438.429,315.493c-0.199-0.576-24.543,5.393-36.273,9.626
		c-1.993,0.72-5.655,4.593-4.047,7.509c0.85,2.411,5.729,3.28,8.237,2.85c13.695-2.354,27.314-5.196,40.851-8.346
		c1.986-0.462,4.652-3.442,4.691-5.306c0.039-1.842-2.508-4.584-4.54-5.416C444.693,315.323,441.43,315.729,438.429,315.493z
		 M441.573,282.59c-2.254-4.303-5.415-5.295-11.467-1.953c-10.992,6.069-21.706,12.7-32.114,19.723
		c-2.145,1.448-5.385,4.971-3.588,8.562c2.711,2.555,7.521,1.881,10.073,0.535c11.127-5.872,21.769-12.659,32.661-18.985
		C439.283,289.227,444.031,285.868,441.573,282.59z"/>
	<path fill-rule="evenodd" clip-rule="evenodd" fill="#94958D" d="M763.226,388.511c8.904-3.056,19.319-3.706,27.941-6.037
		c1.87-0.506,6.125,1.72,6.699,3.513c11.662,12.357,7.974,31.411,6.335,38.377c-12.322,3.207-32.985-2.664-33.805-13.112
		C770.956,406.943,767.95,395.358,763.226,388.511z"/>
	<path fill-rule="evenodd" clip-rule="evenodd" fill="#94958D" d="M753.312,476.187c-2.993-4.086-3.503-20.886-2.588-29.831
		c0.423-4.123,6.811-7.963,11.053-11.199c1.565-1.193,5.57-1.33,7.031-0.16c9.784,4.529,14.906,10.471,22.753,20.078
		C781.46,467.389,767.119,475.379,753.312,476.187z"/>
</g>
</svg>
